<svg width="550" height="380" viewBox="0 0 550 380" fill="none" xmlns="http://www.w3.org/2000/svg">
    <rect width="550" height="353" fill="#222222"/>
    <path d="M43.1749 45.296V46H38.1919V45.175L41.3819 41.952C42.0052 41.314 42.3169 40.72 42.3169 40.17C42.3169 39.73 42.1665 39.3743 41.8659 39.103C41.5725 38.8243 41.2095 38.685 40.7769 38.685C40.3662 38.685 40.0179 38.8133 39.7319 39.07C39.4459 39.3267 39.2589 39.6603 39.1709 40.071L38.3899 39.917C38.4999 39.3597 38.7749 38.905 39.2149 38.553C39.6549 38.1937 40.1755 38.014 40.7769 38.014C41.4442 38.014 42.0015 38.201 42.4489 38.575C42.8962 38.949 43.1199 39.477 43.1199 40.159C43.1199 40.6137 43.0135 41.017 42.8009 41.369C42.5882 41.7137 42.2729 42.095 41.8549 42.513L39.0499 45.296H43.1749ZM47.2017 38.014C47.6637 38.014 48.0671 38.1313 48.4117 38.366C48.7564 38.5933 49.0204 38.9087 49.2037 39.312C49.3944 39.7153 49.5337 40.1517 49.6217 40.621C49.7097 41.083 49.7537 41.5817 49.7537 42.117C49.7537 42.6523 49.7097 43.151 49.6217 43.613C49.5337 44.075 49.3944 44.5077 49.2037 44.911C49.0204 45.307 48.7564 45.6223 48.4117 45.857C48.0671 46.0843 47.6637 46.198 47.2017 46.198C46.7324 46.198 46.3254 46.0843 45.9807 45.857C45.6361 45.6223 45.3684 45.307 45.1777 44.911C44.9944 44.5077 44.8587 44.0787 44.7707 43.624C44.6901 43.162 44.6497 42.6597 44.6497 42.117C44.6497 41.6917 44.6754 41.292 44.7267 40.918C44.7781 40.5367 44.8624 40.1663 44.9797 39.807C45.1044 39.4403 45.2621 39.1287 45.4527 38.872C45.6434 38.6153 45.8854 38.41 46.1787 38.256C46.4794 38.0947 46.8204 38.014 47.2017 38.014ZM47.2017 38.685C46.8717 38.685 46.5857 38.7877 46.3437 38.993C46.1091 39.1983 45.9294 39.477 45.8047 39.829C45.6801 40.181 45.5884 40.544 45.5297 40.918C45.4784 41.292 45.4527 41.6917 45.4527 42.117C45.4527 42.5423 45.4784 42.942 45.5297 43.316C45.5884 43.6827 45.6801 44.042 45.8047 44.394C45.9294 44.7387 46.1091 45.0137 46.3437 45.219C46.5857 45.417 46.8717 45.516 47.2017 45.516C47.5244 45.516 47.8031 45.417 48.0377 45.219C48.2797 45.0137 48.4631 44.7387 48.5877 44.394C48.7124 44.0493 48.8041 43.69 48.8627 43.316C48.9214 42.9347 48.9507 42.535 48.9507 42.117C48.9507 41.699 48.9214 41.2993 48.8627 40.918C48.8041 40.5367 48.7124 40.1737 48.5877 39.829C48.4631 39.477 48.2797 39.1983 48.0377 38.993C47.8031 38.7877 47.5244 38.685 47.2017 38.685ZM52.1526 37.684V43.173H52.1856L54.5616 40.852H55.6396L53.0436 43.206L55.9036 46H54.8036L52.1856 43.294H52.1526V46H51.4046V37.684H52.1526Z" fill="#D6D6D6"/>
    <path d="M41.5689 91.212V99H40.7769V92.191L39.3689 93.39L38.8849 92.84L40.8649 91.212H41.5689ZM49.2367 91.212V91.916H45.9917L45.9367 94.325C46.2594 94.2077 46.6187 94.149 47.0147 94.149C47.7481 94.149 48.3531 94.3763 48.8297 94.831C49.3064 95.2857 49.5447 95.8723 49.5447 96.591C49.5447 97.3463 49.3027 97.9697 48.8187 98.461C48.3421 98.9523 47.7224 99.198 46.9597 99.198C45.8744 99.198 45.0971 98.725 44.6277 97.779L45.3427 97.46C45.4821 97.7827 45.6947 98.0393 45.9807 98.23C46.2667 98.4207 46.5784 98.516 46.9157 98.516C47.4437 98.516 47.8801 98.34 48.2247 97.988C48.5694 97.636 48.7417 97.196 48.7417 96.668C48.7417 96.1033 48.5584 95.6523 48.1917 95.315C47.8324 94.9703 47.3704 94.798 46.8057 94.798C46.2631 94.798 45.7241 94.941 45.1887 95.227L45.2657 91.212H49.2367ZM52.1526 90.684V96.173H52.1856L54.5616 93.852H55.6396L53.0436 96.206L55.9036 99H54.8036L52.1856 96.294H52.1526V99H51.4046V90.684H52.1526Z" fill="#D6D6D6"/>
    <path d="M41.5689 144.212V152H40.7769V145.191L39.3689 146.39L38.8849 145.84L40.8649 144.212H41.5689ZM47.2017 144.014C47.6637 144.014 48.0671 144.131 48.4117 144.366C48.7564 144.593 49.0204 144.909 49.2037 145.312C49.3944 145.715 49.5337 146.152 49.6217 146.621C49.7097 147.083 49.7537 147.582 49.7537 148.117C49.7537 148.652 49.7097 149.151 49.6217 149.613C49.5337 150.075 49.3944 150.508 49.2037 150.911C49.0204 151.307 48.7564 151.622 48.4117 151.857C48.0671 152.084 47.6637 152.198 47.2017 152.198C46.7324 152.198 46.3254 152.084 45.9807 151.857C45.6361 151.622 45.3684 151.307 45.1777 150.911C44.9944 150.508 44.8587 150.079 44.7707 149.624C44.6901 149.162 44.6497 148.66 44.6497 148.117C44.6497 147.692 44.6754 147.292 44.7267 146.918C44.7781 146.537 44.8624 146.166 44.9797 145.807C45.1044 145.44 45.2621 145.129 45.4527 144.872C45.6434 144.615 45.8854 144.41 46.1787 144.256C46.4794 144.095 46.8204 144.014 47.2017 144.014ZM47.2017 144.685C46.8717 144.685 46.5857 144.788 46.3437 144.993C46.1091 145.198 45.9294 145.477 45.8047 145.829C45.6801 146.181 45.5884 146.544 45.5297 146.918C45.4784 147.292 45.4527 147.692 45.4527 148.117C45.4527 148.542 45.4784 148.942 45.5297 149.316C45.5884 149.683 45.6801 150.042 45.8047 150.394C45.9294 150.739 46.1091 151.014 46.3437 151.219C46.5857 151.417 46.8717 151.516 47.2017 151.516C47.5244 151.516 47.8031 151.417 48.0377 151.219C48.2797 151.014 48.4631 150.739 48.5877 150.394C48.7124 150.049 48.8041 149.69 48.8627 149.316C48.9214 148.935 48.9507 148.535 48.9507 148.117C48.9507 147.699 48.9214 147.299 48.8627 146.918C48.8041 146.537 48.7124 146.174 48.5877 145.829C48.4631 145.477 48.2797 145.198 48.0377 144.993C47.8031 144.788 47.5244 144.685 47.2017 144.685ZM52.1526 143.684V149.173H52.1856L54.5616 146.852H55.6396L53.0436 149.206L55.9036 152H54.8036L52.1856 149.294H52.1526V152H51.4046V143.684H52.1526Z" fill="#D6D6D6"/>
    <path d="M49.2367 197.212V197.916H45.9917L45.9367 200.325C46.2594 200.208 46.6187 200.149 47.0147 200.149C47.7481 200.149 48.3531 200.376 48.8297 200.831C49.3064 201.286 49.5447 201.872 49.5447 202.591C49.5447 203.346 49.3027 203.97 48.8187 204.461C48.3421 204.952 47.7224 205.198 46.9597 205.198C45.8744 205.198 45.0971 204.725 44.6277 203.779L45.3427 203.46C45.4821 203.783 45.6947 204.039 45.9807 204.23C46.2667 204.421 46.5784 204.516 46.9157 204.516C47.4437 204.516 47.8801 204.34 48.2247 203.988C48.5694 203.636 48.7417 203.196 48.7417 202.668C48.7417 202.103 48.5584 201.652 48.1917 201.315C47.8324 200.97 47.3704 200.798 46.8057 200.798C46.2631 200.798 45.7241 200.941 45.1887 201.227L45.2657 197.212H49.2367ZM52.1526 196.684V202.173H52.1856L54.5616 199.852H55.6396L53.0436 202.206L55.9036 205H54.8036L52.1856 202.294H52.1526V205H51.4046V196.684H52.1526Z" fill="#D6D6D6"/>
    <path d="M52.8091 250.014C53.2711 250.014 53.6745 250.131 54.0191 250.366C54.3638 250.593 54.6278 250.909 54.8111 251.312C55.0018 251.715 55.1411 252.152 55.2291 252.621C55.3171 253.083 55.3611 253.582 55.3611 254.117C55.3611 254.652 55.3171 255.151 55.2291 255.613C55.1411 256.075 55.0018 256.508 54.8111 256.911C54.6278 257.307 54.3638 257.622 54.0191 257.857C53.6745 258.084 53.2711 258.198 52.8091 258.198C52.3398 258.198 51.9328 258.084 51.5881 257.857C51.2435 257.622 50.9758 257.307 50.7851 256.911C50.6018 256.508 50.4661 256.079 50.3781 255.624C50.2975 255.162 50.2571 254.66 50.2571 254.117C50.2571 253.692 50.2828 253.292 50.3341 252.918C50.3855 252.537 50.4698 252.166 50.5871 251.807C50.7118 251.44 50.8695 251.129 51.0601 250.872C51.2508 250.615 51.4928 250.41 51.7861 250.256C52.0868 250.095 52.4278 250.014 52.8091 250.014ZM52.8091 250.685C52.4791 250.685 52.1931 250.788 51.9511 250.993C51.7165 251.198 51.5368 251.477 51.4121 251.829C51.2875 252.181 51.1958 252.544 51.1371 252.918C51.0858 253.292 51.0601 253.692 51.0601 254.117C51.0601 254.542 51.0858 254.942 51.1371 255.316C51.1958 255.683 51.2875 256.042 51.4121 256.394C51.5368 256.739 51.7165 257.014 51.9511 257.219C52.1931 257.417 52.4791 257.516 52.8091 257.516C53.1318 257.516 53.4105 257.417 53.6451 257.219C53.8871 257.014 54.0705 256.739 54.1951 256.394C54.3198 256.049 54.4115 255.69 54.4701 255.316C54.5288 254.935 54.5581 254.535 54.5581 254.117C54.5581 253.699 54.5288 253.299 54.4701 252.918C54.4115 252.537 54.3198 252.174 54.1951 251.829C54.0705 251.477 53.8871 251.198 53.6451 250.993C53.4105 250.788 53.1318 250.685 52.8091 250.685Z" fill="#D6D6D6"/>
    <path d="M71.275 270.614L72.012 270.416C72.078 270.731 72.221 270.992 72.441 271.197C72.6683 271.402 72.947 271.505 73.277 271.505C74.1937 271.505 74.652 270.904 74.652 269.701V264.212H75.444V269.756C75.444 269.976 75.4257 270.192 75.389 270.405C75.3597 270.61 75.2973 270.827 75.202 271.054C75.1067 271.274 74.982 271.468 74.828 271.637C74.6813 271.798 74.4833 271.93 74.234 272.033C73.9847 272.143 73.695 272.198 73.365 272.198C72.815 272.198 72.353 272.051 71.979 271.758C71.605 271.465 71.3703 271.083 71.275 270.614ZM80.5846 268.843V268.678C80.5846 267.791 80.1263 267.347 79.2096 267.347C78.5936 267.347 78.0839 267.549 77.6806 267.952L77.2626 267.457C77.7539 266.966 78.4286 266.72 79.2866 266.72C79.8733 266.72 80.3536 266.881 80.7276 267.204C81.1016 267.527 81.2886 267.989 81.2886 268.59V270.845C81.2886 271.307 81.3179 271.692 81.3766 272H80.7056C80.6543 271.707 80.6286 271.428 80.6286 271.164H80.6066C80.1593 271.809 79.5359 272.132 78.7366 272.132C78.2746 272.132 77.8603 272.004 77.4936 271.747C77.1343 271.483 76.9546 271.091 76.9546 270.57C76.9546 270.313 76.9986 270.09 77.0866 269.899C77.1746 269.701 77.3066 269.54 77.4826 269.415C77.6586 269.29 77.8493 269.191 78.0546 269.118C78.2599 269.037 78.5129 268.979 78.8136 268.942C79.1143 268.898 79.3929 268.872 79.6496 268.865C79.9136 268.85 80.2253 268.843 80.5846 268.843ZM80.5846 269.426H80.3646C80.0126 269.426 79.6973 269.441 79.4186 269.47C79.1473 269.492 78.8723 269.54 78.5936 269.613C78.3223 269.686 78.1096 269.8 77.9556 269.954C77.8016 270.108 77.7246 270.302 77.7246 270.537C77.7246 270.874 77.8419 271.124 78.0766 271.285C78.3113 271.439 78.5973 271.516 78.9346 271.516C79.4406 271.516 79.8403 271.351 80.1336 271.021C80.4343 270.691 80.5846 270.288 80.5846 269.811V269.426ZM83.1716 266.852H83.8866C83.9159 267.219 83.9306 267.512 83.9306 267.732H83.9526C84.0919 267.439 84.3266 267.197 84.6566 267.006C84.9939 266.815 85.3459 266.72 85.7126 266.72C86.3506 266.72 86.8346 266.911 87.1646 267.292C87.5019 267.673 87.6706 268.19 87.6706 268.843V272H86.9226V269.151C86.9226 268.572 86.8163 268.128 86.6036 267.82C86.3983 267.505 86.0389 267.347 85.5256 267.347C85.0929 267.347 84.7226 267.523 84.4146 267.875C84.1139 268.22 83.9636 268.715 83.9636 269.36V272H83.2156V267.985C83.2156 267.545 83.2009 267.167 83.1716 266.852ZM90.4652 271.054C90.5825 271.171 90.6412 271.311 90.6412 271.472C90.6412 271.633 90.5825 271.773 90.4652 271.89C90.3552 272.007 90.2159 272.066 90.0472 272.066C89.8785 272.066 89.7355 272.007 89.6182 271.89C89.5082 271.773 89.4532 271.633 89.4532 271.472C89.4532 271.311 89.5082 271.171 89.6182 271.054C89.7355 270.937 89.8785 270.878 90.0472 270.878C90.2159 270.878 90.3552 270.937 90.4652 271.054ZM99.4356 271.296V272H94.4526V271.175L97.6426 267.952C98.2659 267.314 98.5776 266.72 98.5776 266.17C98.5776 265.73 98.4273 265.374 98.1266 265.103C97.8333 264.824 97.4703 264.685 97.0376 264.685C96.6269 264.685 96.2786 264.813 95.9926 265.07C95.7066 265.327 95.5196 265.66 95.4316 266.071L94.6506 265.917C94.7606 265.36 95.0356 264.905 95.4756 264.553C95.9156 264.194 96.4363 264.014 97.0376 264.014C97.7049 264.014 98.2623 264.201 98.7096 264.575C99.1569 264.949 99.3806 265.477 99.3806 266.159C99.3806 266.614 99.2743 267.017 99.0616 267.369C98.8489 267.714 98.5336 268.095 98.1156 268.513L95.3106 271.296H99.4356ZM103.462 264.014C103.924 264.014 104.328 264.131 104.672 264.366C105.017 264.593 105.281 264.909 105.464 265.312C105.655 265.715 105.794 266.152 105.882 266.621C105.97 267.083 106.014 267.582 106.014 268.117C106.014 268.652 105.97 269.151 105.882 269.613C105.794 270.075 105.655 270.508 105.464 270.911C105.281 271.307 105.017 271.622 104.672 271.857C104.328 272.084 103.924 272.198 103.462 272.198C102.993 272.198 102.586 272.084 102.241 271.857C101.897 271.622 101.629 271.307 101.438 270.911C101.255 270.508 101.119 270.079 101.031 269.624C100.951 269.162 100.91 268.66 100.91 268.117C100.91 267.692 100.936 267.292 100.987 266.918C101.039 266.537 101.123 266.166 101.24 265.807C101.365 265.44 101.523 265.129 101.713 264.872C101.904 264.615 102.146 264.41 102.439 264.256C102.74 264.095 103.081 264.014 103.462 264.014ZM103.462 264.685C103.132 264.685 102.846 264.788 102.604 264.993C102.37 265.198 102.19 265.477 102.065 265.829C101.941 266.181 101.849 266.544 101.79 266.918C101.739 267.292 101.713 267.692 101.713 268.117C101.713 268.542 101.739 268.942 101.79 269.316C101.849 269.683 101.941 270.042 102.065 270.394C102.19 270.739 102.37 271.014 102.604 271.219C102.846 271.417 103.132 271.516 103.462 271.516C103.785 271.516 104.064 271.417 104.298 271.219C104.54 271.014 104.724 270.739 104.848 270.394C104.973 270.049 105.065 269.69 105.123 269.316C105.182 268.935 105.211 268.535 105.211 268.117C105.211 267.699 105.182 267.299 105.123 266.918C105.065 266.537 104.973 266.174 104.848 265.829C104.724 265.477 104.54 265.198 104.298 264.993C104.064 264.788 103.785 264.685 103.462 264.685Z" fill="#D6D6D6"/>
    <path d="M166.275 270.614L167.012 270.416C167.078 270.731 167.221 270.992 167.441 271.197C167.668 271.402 167.947 271.505 168.277 271.505C169.194 271.505 169.652 270.904 169.652 269.701V264.212H170.444V269.756C170.444 269.976 170.426 270.192 170.389 270.405C170.36 270.61 170.297 270.827 170.202 271.054C170.107 271.274 169.982 271.468 169.828 271.637C169.681 271.798 169.483 271.93 169.234 272.033C168.985 272.143 168.695 272.198 168.365 272.198C167.815 272.198 167.353 272.051 166.979 271.758C166.605 271.465 166.37 271.083 166.275 270.614ZM175.585 268.843V268.678C175.585 267.791 175.126 267.347 174.21 267.347C173.594 267.347 173.084 267.549 172.681 267.952L172.263 267.457C172.754 266.966 173.429 266.72 174.287 266.72C174.873 266.72 175.354 266.881 175.728 267.204C176.102 267.527 176.289 267.989 176.289 268.59V270.845C176.289 271.307 176.318 271.692 176.377 272H175.706C175.654 271.707 175.629 271.428 175.629 271.164H175.607C175.159 271.809 174.536 272.132 173.737 272.132C173.275 272.132 172.86 272.004 172.494 271.747C172.134 271.483 171.955 271.091 171.955 270.57C171.955 270.313 171.999 270.09 172.087 269.899C172.175 269.701 172.307 269.54 172.483 269.415C172.659 269.29 172.849 269.191 173.055 269.118C173.26 269.037 173.513 268.979 173.814 268.942C174.114 268.898 174.393 268.872 174.65 268.865C174.914 268.85 175.225 268.843 175.585 268.843ZM175.585 269.426H175.365C175.013 269.426 174.697 269.441 174.419 269.47C174.147 269.492 173.872 269.54 173.594 269.613C173.322 269.686 173.11 269.8 172.956 269.954C172.802 270.108 172.725 270.302 172.725 270.537C172.725 270.874 172.842 271.124 173.077 271.285C173.311 271.439 173.597 271.516 173.935 271.516C174.441 271.516 174.84 271.351 175.134 271.021C175.434 270.691 175.585 270.288 175.585 269.811V269.426ZM178.172 266.852H178.887C178.916 267.219 178.931 267.512 178.931 267.732H178.953C179.092 267.439 179.327 267.197 179.657 267.006C179.994 266.815 180.346 266.72 180.713 266.72C181.351 266.72 181.835 266.911 182.165 267.292C182.502 267.673 182.671 268.19 182.671 268.843V272H181.923V269.151C181.923 268.572 181.816 268.128 181.604 267.82C181.398 267.505 181.039 267.347 180.526 267.347C180.093 267.347 179.723 267.523 179.415 267.875C179.114 268.22 178.964 268.715 178.964 269.36V272H178.216V267.985C178.216 267.545 178.201 267.167 178.172 266.852ZM185.465 271.054C185.583 271.171 185.641 271.311 185.641 271.472C185.641 271.633 185.583 271.773 185.465 271.89C185.355 272.007 185.216 272.066 185.047 272.066C184.879 272.066 184.736 272.007 184.618 271.89C184.508 271.773 184.453 271.633 184.453 271.472C184.453 271.311 184.508 271.171 184.618 271.054C184.736 270.937 184.879 270.878 185.047 270.878C185.216 270.878 185.355 270.937 185.465 271.054ZM194.436 271.296V272H189.453V271.175L192.643 267.952C193.266 267.314 193.578 266.72 193.578 266.17C193.578 265.73 193.427 265.374 193.127 265.103C192.833 264.824 192.47 264.685 192.038 264.685C191.627 264.685 191.279 264.813 190.993 265.07C190.707 265.327 190.52 265.66 190.432 266.071L189.651 265.917C189.761 265.36 190.036 264.905 190.476 264.553C190.916 264.194 191.436 264.014 192.038 264.014C192.705 264.014 193.262 264.201 193.71 264.575C194.157 264.949 194.381 265.477 194.381 266.159C194.381 266.614 194.274 267.017 194.062 267.369C193.849 267.714 193.534 268.095 193.116 268.513L190.311 271.296H194.436ZM200.75 264.212V264.938L197.615 272H196.724L199.947 264.916H196.13V264.212H200.75Z" fill="#D6D6D6"/>
    <path d="M206.024 318.212L210.556 324.845H210.578V318.212H211.37V326H210.38L205.848 319.301H205.826V326H205.034V318.212H206.024ZM213.808 323.03H217.317C217.295 322.531 217.134 322.128 216.833 321.82C216.54 321.505 216.133 321.347 215.612 321.347C215.128 321.347 214.714 321.516 214.369 321.853C214.032 322.183 213.845 322.575 213.808 323.03ZM218.076 323.272C218.076 323.419 218.073 323.536 218.065 323.624H213.797C213.812 324.145 213.999 324.588 214.358 324.955C214.718 325.314 215.158 325.494 215.678 325.494C216.038 325.494 216.364 325.41 216.657 325.241C216.951 325.065 217.174 324.852 217.328 324.603L217.889 325.043C217.317 325.769 216.58 326.132 215.678 326.132C214.916 326.132 214.281 325.875 213.775 325.362C213.269 324.849 213.016 324.203 213.016 323.426C213.016 322.656 213.266 322.014 213.764 321.501C214.263 320.98 214.879 320.72 215.612 320.72C216.39 320.72 216.995 320.962 217.427 321.446C217.86 321.923 218.076 322.531 218.076 323.272ZM218.981 320.852H219.784L221.027 325.032H221.049L222.435 320.852H223.161L224.569 325.032H224.591L225.823 320.852H226.615L224.987 326H224.173L222.798 321.831H222.776L221.423 326H220.609L218.981 320.852ZM236.626 324.35L237.242 324.746C236.964 325.171 236.571 325.52 236.065 325.791C235.567 326.062 234.987 326.198 234.327 326.198C233.154 326.198 232.182 325.813 231.412 325.043C230.65 324.266 230.268 323.287 230.268 322.106C230.268 320.925 230.653 319.95 231.423 319.18C232.193 318.403 233.161 318.014 234.327 318.014C234.899 318.014 235.435 318.128 235.933 318.355C236.439 318.575 236.828 318.872 237.099 319.246L236.439 319.73C236.256 319.451 235.974 319.213 235.592 319.015C235.218 318.81 234.8 318.707 234.338 318.707C233.363 318.707 232.578 319.037 231.984 319.697C231.398 320.357 231.104 321.16 231.104 322.106C231.104 323.052 231.401 323.855 231.995 324.515C232.589 325.175 233.37 325.505 234.338 325.505C235.35 325.505 236.113 325.12 236.626 324.35ZM242.764 321.49C243.285 322.003 243.545 322.649 243.545 323.426C243.545 324.203 243.285 324.849 242.764 325.362C242.251 325.875 241.595 326.132 240.795 326.132C240.003 326.132 239.347 325.875 238.826 325.362C238.313 324.849 238.056 324.203 238.056 323.426C238.056 322.649 238.313 322.003 238.826 321.49C239.347 320.977 240.003 320.72 240.795 320.72C241.595 320.72 242.251 320.977 242.764 321.49ZM242.214 324.911C242.574 324.515 242.753 324.02 242.753 323.426C242.753 322.832 242.574 322.337 242.214 321.941C241.855 321.545 241.382 321.347 240.795 321.347C240.216 321.347 239.747 321.545 239.387 321.941C239.028 322.337 238.848 322.832 238.848 323.426C238.848 324.013 239.028 324.504 239.387 324.9C239.747 325.296 240.216 325.494 240.795 325.494C241.382 325.494 241.855 325.3 242.214 324.911ZM245.111 320.852H245.826C245.855 321.219 245.87 321.512 245.87 321.732H245.892C246.031 321.439 246.266 321.197 246.596 321.006C246.933 320.815 247.285 320.72 247.652 320.72C248.29 320.72 248.774 320.911 249.104 321.292C249.441 321.673 249.61 322.19 249.61 322.843V326H248.862V323.151C248.862 322.572 248.756 322.128 248.543 321.82C248.338 321.505 247.978 321.347 247.465 321.347C247.032 321.347 246.662 321.523 246.354 321.875C246.053 322.22 245.903 322.715 245.903 323.36V326H245.155V321.985C245.155 321.545 245.14 321.167 245.111 320.852ZM255.529 320.852V326H254.781V320.852H255.529ZM255.529 318.498C255.639 318.601 255.694 318.725 255.694 318.872C255.694 319.019 255.639 319.143 255.529 319.246C255.426 319.349 255.305 319.4 255.166 319.4C255.026 319.4 254.902 319.349 254.792 319.246C254.689 319.143 254.638 319.019 254.638 318.872C254.638 318.725 254.689 318.601 254.792 318.498C254.902 318.395 255.026 318.344 255.166 318.344C255.305 318.344 255.426 318.395 255.529 318.498ZM253.725 320.852V321.479H252.515V326H251.767V321.479H250.689V320.852H251.767V319.444C251.767 318.85 251.913 318.388 252.207 318.058C252.5 317.721 252.936 317.552 253.516 317.552C253.75 317.552 253.956 317.578 254.132 317.629L254 318.289C253.824 318.238 253.651 318.212 253.483 318.212C253.109 318.212 252.852 318.326 252.713 318.553C252.581 318.78 252.515 319.107 252.515 319.532V320.852H253.725ZM257.53 321.985C257.53 321.545 257.515 321.167 257.486 320.852H258.201C258.23 321.219 258.245 321.512 258.245 321.732H258.267C258.414 321.431 258.634 321.189 258.927 321.006C259.228 320.815 259.558 320.72 259.917 320.72C260.115 320.72 260.28 320.738 260.412 320.775L260.313 321.479C260.196 321.435 260.02 321.413 259.785 321.413C259.352 321.413 258.993 321.578 258.707 321.908C258.421 322.231 258.278 322.715 258.278 323.36V326H257.53V321.985ZM262.231 321.732C262.385 321.431 262.612 321.189 262.913 321.006C263.221 320.815 263.558 320.72 263.925 320.72C264.702 320.72 265.23 321.083 265.509 321.809C265.868 321.083 266.47 320.72 267.313 320.72C267.951 320.72 268.435 320.911 268.765 321.292C269.102 321.673 269.271 322.19 269.271 322.843V326H268.523V323.151C268.523 321.948 268.079 321.347 267.192 321.347C266.693 321.347 266.323 321.534 266.081 321.908C265.846 322.275 265.729 322.726 265.729 323.261V326H264.981V322.997C264.981 322.454 264.889 322.044 264.706 321.765C264.53 321.486 264.207 321.347 263.738 321.347C263.342 321.347 262.994 321.523 262.693 321.875C262.392 322.22 262.242 322.715 262.242 323.36V326H261.494V321.985C261.494 321.545 261.479 321.167 261.45 320.852H262.165C262.194 321.219 262.209 321.512 262.209 321.732H262.231ZM271.623 323.03H275.132C275.11 322.531 274.949 322.128 274.648 321.82C274.355 321.505 273.948 321.347 273.427 321.347C272.943 321.347 272.529 321.516 272.184 321.853C271.847 322.183 271.66 322.575 271.623 323.03ZM275.891 323.272C275.891 323.419 275.887 323.536 275.88 323.624H271.612C271.627 324.145 271.814 324.588 272.173 324.955C272.532 325.314 272.972 325.494 273.493 325.494C273.852 325.494 274.179 325.41 274.472 325.241C274.765 325.065 274.989 324.852 275.143 324.603L275.704 325.043C275.132 325.769 274.395 326.132 273.493 326.132C272.73 326.132 272.096 325.875 271.59 325.362C271.084 324.849 270.831 324.203 270.831 323.426C270.831 322.656 271.08 322.014 271.579 321.501C272.078 320.98 272.694 320.72 273.427 320.72C274.204 320.72 274.809 320.962 275.242 321.446C275.675 321.923 275.891 322.531 275.891 323.272ZM281.735 325.131C281.522 325.446 281.24 325.692 280.888 325.868C280.536 326.044 280.169 326.132 279.788 326.132C278.996 326.132 278.354 325.875 277.863 325.362C277.371 324.841 277.126 324.196 277.126 323.426C277.126 322.656 277.371 322.014 277.863 321.501C278.354 320.98 278.996 320.72 279.788 320.72C280.169 320.72 280.536 320.812 280.888 320.995C281.24 321.171 281.522 321.42 281.735 321.743H281.757V317.684H282.505V326H281.757V325.131H281.735ZM278.435 321.941C278.09 322.337 277.918 322.832 277.918 323.426C277.918 324.02 278.09 324.515 278.435 324.911C278.787 325.3 279.263 325.494 279.865 325.494C280.437 325.494 280.91 325.3 281.284 324.911C281.658 324.515 281.845 324.02 281.845 323.426C281.845 322.832 281.658 322.337 281.284 321.941C280.91 321.545 280.437 321.347 279.865 321.347C279.263 321.347 278.787 321.545 278.435 321.941Z" fill="#D6D6D6"/>
    <path d="M320.024 318.212L324.556 324.845H324.578V318.212H325.37V326H324.38L319.848 319.301H319.826V326H319.034V318.212H320.024ZM327.808 323.03H331.317C331.295 322.531 331.134 322.128 330.833 321.82C330.54 321.505 330.133 321.347 329.612 321.347C329.128 321.347 328.714 321.516 328.369 321.853C328.032 322.183 327.845 322.575 327.808 323.03ZM332.076 323.272C332.076 323.419 332.073 323.536 332.065 323.624H327.797C327.812 324.145 327.999 324.588 328.358 324.955C328.718 325.314 329.158 325.494 329.678 325.494C330.038 325.494 330.364 325.41 330.657 325.241C330.951 325.065 331.174 324.852 331.328 324.603L331.889 325.043C331.317 325.769 330.58 326.132 329.678 326.132C328.916 326.132 328.281 325.875 327.775 325.362C327.269 324.849 327.016 324.203 327.016 323.426C327.016 322.656 327.266 322.014 327.764 321.501C328.263 320.98 328.879 320.72 329.612 320.72C330.39 320.72 330.995 320.962 331.427 321.446C331.86 321.923 332.076 322.531 332.076 323.272ZM332.981 320.852H333.784L335.027 325.032H335.049L336.435 320.852H337.161L338.569 325.032H338.591L339.823 320.852H340.615L338.987 326H338.173L336.798 321.831H336.776L335.423 326H334.609L332.981 320.852ZM345.478 322.359V326H344.686V318.212H346.974C347.796 318.212 348.445 318.381 348.921 318.718C349.398 319.048 349.636 319.572 349.636 320.291C349.636 320.856 349.449 321.314 349.075 321.666C348.709 322.018 348.232 322.227 347.645 322.293L349.922 326H348.954L346.798 322.359H345.478ZM345.478 318.894V321.677H346.853C347.491 321.677 347.983 321.56 348.327 321.325C348.672 321.09 348.844 320.746 348.844 320.291C348.844 319.36 348.192 318.894 346.886 318.894H345.478ZM351.516 323.03H355.025C355.003 322.531 354.842 322.128 354.541 321.82C354.248 321.505 353.841 321.347 353.32 321.347C352.836 321.347 352.422 321.516 352.077 321.853C351.74 322.183 351.553 322.575 351.516 323.03ZM355.784 323.272C355.784 323.419 355.781 323.536 355.773 323.624H351.505C351.52 324.145 351.707 324.588 352.066 324.955C352.426 325.314 352.866 325.494 353.386 325.494C353.746 325.494 354.072 325.41 354.365 325.241C354.659 325.065 354.882 324.852 355.036 324.603L355.597 325.043C355.025 325.769 354.288 326.132 353.386 326.132C352.624 326.132 351.989 325.875 351.483 325.362C350.977 324.849 350.724 324.203 350.724 323.426C350.724 322.656 350.974 322.014 351.472 321.501C351.971 320.98 352.587 320.72 353.32 320.72C354.098 320.72 354.703 320.962 355.135 321.446C355.568 321.923 355.784 322.531 355.784 323.272ZM361.683 321.611L361.1 322.029C360.976 321.831 360.792 321.67 360.55 321.545C360.316 321.413 360.059 321.347 359.78 321.347C359.194 321.347 358.717 321.545 358.35 321.941C357.991 322.33 357.811 322.825 357.811 323.426C357.811 324.02 357.991 324.515 358.35 324.911C358.71 325.3 359.183 325.494 359.769 325.494C360.363 325.494 360.829 325.27 361.166 324.823L361.727 325.241C361.243 325.835 360.591 326.132 359.769 326.132C358.948 326.132 358.284 325.879 357.778 325.373C357.272 324.86 357.019 324.211 357.019 323.426C357.019 322.641 357.272 321.996 357.778 321.49C358.284 320.977 358.948 320.72 359.769 320.72C360.136 320.72 360.492 320.797 360.836 320.951C361.188 321.105 361.471 321.325 361.683 321.611ZM367.227 321.49C367.748 322.003 368.008 322.649 368.008 323.426C368.008 324.203 367.748 324.849 367.227 325.362C366.714 325.875 366.058 326.132 365.258 326.132C364.466 326.132 363.81 325.875 363.289 325.362C362.776 324.849 362.519 324.203 362.519 323.426C362.519 322.649 362.776 322.003 363.289 321.49C363.81 320.977 364.466 320.72 365.258 320.72C366.058 320.72 366.714 320.977 367.227 321.49ZM366.677 324.911C367.037 324.515 367.216 324.02 367.216 323.426C367.216 322.832 367.037 322.337 366.677 321.941C366.318 321.545 365.845 321.347 365.258 321.347C364.679 321.347 364.21 321.545 363.85 321.941C363.491 322.337 363.311 322.832 363.311 323.426C363.311 324.013 363.491 324.504 363.85 324.9C364.21 325.296 364.679 325.494 365.258 325.494C365.845 325.494 366.318 325.3 366.677 324.911ZM373.82 320.852L371.73 326H370.905L368.804 320.852H369.64L371.312 325.208H371.334L373.017 320.852H373.82ZM375.407 323.03H378.916C378.894 322.531 378.733 322.128 378.432 321.82C378.139 321.505 377.732 321.347 377.211 321.347C376.727 321.347 376.313 321.516 375.968 321.853C375.631 322.183 375.444 322.575 375.407 323.03ZM379.675 323.272C379.675 323.419 379.671 323.536 379.664 323.624H375.396C375.411 324.145 375.598 324.588 375.957 324.955C376.316 325.314 376.756 325.494 377.277 325.494C377.636 325.494 377.963 325.41 378.256 325.241C378.549 325.065 378.773 324.852 378.927 324.603L379.488 325.043C378.916 325.769 378.179 326.132 377.277 326.132C376.514 326.132 375.88 325.875 375.374 325.362C374.868 324.849 374.615 324.203 374.615 323.426C374.615 322.656 374.864 322.014 375.363 321.501C375.862 320.98 376.478 320.72 377.211 320.72C377.988 320.72 378.593 320.962 379.026 321.446C379.459 321.923 379.675 322.531 379.675 323.272ZM381.284 321.985C381.284 321.545 381.269 321.167 381.24 320.852H381.955C381.984 321.219 381.999 321.512 381.999 321.732H382.021C382.168 321.431 382.388 321.189 382.681 321.006C382.982 320.815 383.312 320.72 383.671 320.72C383.869 320.72 384.034 320.738 384.166 320.775L384.067 321.479C383.95 321.435 383.774 321.413 383.539 321.413C383.106 321.413 382.747 321.578 382.461 321.908C382.175 322.231 382.032 322.715 382.032 323.36V326H381.284V321.985ZM385.472 323.03H388.981C388.959 322.531 388.798 322.128 388.497 321.82C388.204 321.505 387.797 321.347 387.276 321.347C386.792 321.347 386.378 321.516 386.033 321.853C385.696 322.183 385.509 322.575 385.472 323.03ZM389.74 323.272C389.74 323.419 389.737 323.536 389.729 323.624H385.461C385.476 324.145 385.663 324.588 386.022 324.955C386.382 325.314 386.822 325.494 387.342 325.494C387.702 325.494 388.028 325.41 388.321 325.241C388.615 325.065 388.838 324.852 388.992 324.603L389.553 325.043C388.981 325.769 388.244 326.132 387.342 326.132C386.58 326.132 385.945 325.875 385.439 325.362C384.933 324.849 384.68 324.203 384.68 323.426C384.68 322.656 384.93 322.014 385.428 321.501C385.927 320.98 386.543 320.72 387.276 320.72C388.054 320.72 388.659 320.962 389.091 321.446C389.524 321.923 389.74 322.531 389.74 323.272ZM395.584 325.131C395.372 325.446 395.089 325.692 394.737 325.868C394.385 326.044 394.019 326.132 393.637 326.132C392.845 326.132 392.204 325.875 391.712 325.362C391.221 324.841 390.975 324.196 390.975 323.426C390.975 322.656 391.221 322.014 391.712 321.501C392.204 320.98 392.845 320.72 393.637 320.72C394.019 320.72 394.385 320.812 394.737 320.995C395.089 321.171 395.372 321.42 395.584 321.743H395.606V317.684H396.354V326H395.606V325.131H395.584ZM392.284 321.941C391.94 322.337 391.767 322.832 391.767 323.426C391.767 324.02 391.94 324.515 392.284 324.911C392.636 325.3 393.113 325.494 393.714 325.494C394.286 325.494 394.759 325.3 395.133 324.911C395.507 324.515 395.694 324.02 395.694 323.426C395.694 322.832 395.507 322.337 395.133 321.941C394.759 321.545 394.286 321.347 393.714 321.347C393.113 321.347 392.636 321.545 392.284 321.941Z" fill="#D6D6D6"/>
    <path d="M261.826 268.315V272H261.034V264.212H265.731V264.916H261.826V267.622H265.456V268.315H261.826ZM267.058 269.03H270.567C270.545 268.531 270.384 268.128 270.083 267.82C269.79 267.505 269.383 267.347 268.862 267.347C268.378 267.347 267.964 267.516 267.619 267.853C267.282 268.183 267.095 268.575 267.058 269.03ZM271.326 269.272C271.326 269.419 271.323 269.536 271.315 269.624H267.047C267.062 270.145 267.249 270.588 267.608 270.955C267.968 271.314 268.408 271.494 268.928 271.494C269.288 271.494 269.614 271.41 269.907 271.241C270.201 271.065 270.424 270.852 270.578 270.603L271.139 271.043C270.567 271.769 269.83 272.132 268.928 272.132C268.166 272.132 267.531 271.875 267.025 271.362C266.519 270.849 266.266 270.203 266.266 269.426C266.266 268.656 266.516 268.014 267.014 267.501C267.513 266.98 268.129 266.72 268.862 266.72C269.64 266.72 270.245 266.962 270.677 267.446C271.11 267.923 271.326 268.531 271.326 269.272ZM273.727 271.131H273.705V272H272.957V263.684H273.705V267.743H273.727C273.94 267.42 274.222 267.171 274.574 266.995C274.926 266.812 275.293 266.72 275.674 266.72C276.466 266.72 277.108 266.98 277.599 267.501C278.091 268.014 278.336 268.656 278.336 269.426C278.336 270.196 278.091 270.841 277.599 271.362C277.108 271.875 276.466 272.132 275.674 272.132C275.293 272.132 274.926 272.044 274.574 271.868C274.222 271.692 273.94 271.446 273.727 271.131ZM277.016 270.911C277.368 270.515 277.544 270.02 277.544 269.426C277.544 268.832 277.368 268.337 277.016 267.941C276.672 267.545 276.199 267.347 275.597 267.347C275.025 267.347 274.552 267.545 274.178 267.941C273.804 268.337 273.617 268.832 273.617 269.426C273.617 270.02 273.804 270.515 274.178 270.911C274.552 271.3 275.025 271.494 275.597 271.494C276.199 271.494 276.672 271.3 277.016 270.911ZM280.668 271.054C280.786 271.171 280.844 271.311 280.844 271.472C280.844 271.633 280.786 271.773 280.668 271.89C280.558 272.007 280.419 272.066 280.25 272.066C280.082 272.066 279.939 272.007 279.821 271.89C279.711 271.773 279.656 271.633 279.656 271.472C279.656 271.311 279.711 271.171 279.821 271.054C279.939 270.937 280.082 270.878 280.25 270.878C280.419 270.878 280.558 270.937 280.668 271.054Z" fill="#D6D6D6"/>
    <path d="M356.826 268.315V272H356.034V264.212H360.731V264.916H356.826V267.622H360.456V268.315H356.826ZM362.058 269.03H365.567C365.545 268.531 365.384 268.128 365.083 267.82C364.79 267.505 364.383 267.347 363.862 267.347C363.378 267.347 362.964 267.516 362.619 267.853C362.282 268.183 362.095 268.575 362.058 269.03ZM366.326 269.272C366.326 269.419 366.323 269.536 366.315 269.624H362.047C362.062 270.145 362.249 270.588 362.608 270.955C362.968 271.314 363.408 271.494 363.928 271.494C364.288 271.494 364.614 271.41 364.907 271.241C365.201 271.065 365.424 270.852 365.578 270.603L366.139 271.043C365.567 271.769 364.83 272.132 363.928 272.132C363.166 272.132 362.531 271.875 362.025 271.362C361.519 270.849 361.266 270.203 361.266 269.426C361.266 268.656 361.516 268.014 362.014 267.501C362.513 266.98 363.129 266.72 363.862 266.72C364.64 266.72 365.245 266.962 365.677 267.446C366.11 267.923 366.326 268.531 366.326 269.272ZM368.727 271.131H368.705V272H367.957V263.684H368.705V267.743H368.727C368.94 267.42 369.222 267.171 369.574 266.995C369.926 266.812 370.293 266.72 370.674 266.72C371.466 266.72 372.108 266.98 372.599 267.501C373.091 268.014 373.336 268.656 373.336 269.426C373.336 270.196 373.091 270.841 372.599 271.362C372.108 271.875 371.466 272.132 370.674 272.132C370.293 272.132 369.926 272.044 369.574 271.868C369.222 271.692 368.94 271.446 368.727 271.131ZM372.016 270.911C372.368 270.515 372.544 270.02 372.544 269.426C372.544 268.832 372.368 268.337 372.016 267.941C371.672 267.545 371.199 267.347 370.597 267.347C370.025 267.347 369.552 267.545 369.178 267.941C368.804 268.337 368.617 268.832 368.617 269.426C368.617 270.02 368.804 270.515 369.178 270.911C369.552 271.3 370.025 271.494 370.597 271.494C371.199 271.494 371.672 271.3 372.016 270.911ZM375.668 271.054C375.786 271.171 375.844 271.311 375.844 271.472C375.844 271.633 375.786 271.773 375.668 271.89C375.558 272.007 375.419 272.066 375.25 272.066C375.082 272.066 374.939 272.007 374.821 271.89C374.711 271.773 374.656 271.633 374.656 271.472C374.656 271.311 374.711 271.171 374.821 271.054C374.939 270.937 375.082 270.878 375.25 270.878C375.419 270.878 375.558 270.937 375.668 271.054ZM383.033 264.212V272H382.241V265.191L380.833 266.39L380.349 265.84L382.329 264.212H383.033ZM388.666 264.014C389.128 264.014 389.531 264.131 389.876 264.366C390.22 264.593 390.484 264.909 390.668 265.312C390.858 265.715 390.998 266.152 391.086 266.621C391.174 267.083 391.218 267.582 391.218 268.117C391.218 268.652 391.174 269.151 391.086 269.613C390.998 270.075 390.858 270.508 390.668 270.911C390.484 271.307 390.22 271.622 389.876 271.857C389.531 272.084 389.128 272.198 388.666 272.198C388.196 272.198 387.789 272.084 387.445 271.857C387.1 271.622 386.832 271.307 386.642 270.911C386.458 270.508 386.323 270.079 386.235 269.624C386.154 269.162 386.114 268.66 386.114 268.117C386.114 267.692 386.139 267.292 386.191 266.918C386.242 266.537 386.326 266.166 386.444 265.807C386.568 265.44 386.726 265.129 386.917 264.872C387.107 264.615 387.349 264.41 387.643 264.256C387.943 264.095 388.284 264.014 388.666 264.014ZM388.666 264.685C388.336 264.685 388.05 264.788 387.808 264.993C387.573 265.198 387.393 265.477 387.269 265.829C387.144 266.181 387.052 266.544 386.994 266.918C386.942 267.292 386.917 267.692 386.917 268.117C386.917 268.542 386.942 268.942 386.994 269.316C387.052 269.683 387.144 270.042 387.269 270.394C387.393 270.739 387.573 271.014 387.808 271.219C388.05 271.417 388.336 271.516 388.666 271.516C388.988 271.516 389.267 271.417 389.502 271.219C389.744 271.014 389.927 270.739 390.052 270.394C390.176 270.049 390.268 269.69 390.327 269.316C390.385 268.935 390.415 268.535 390.415 268.117C390.415 267.699 390.385 267.299 390.327 266.918C390.268 266.537 390.176 266.174 390.052 265.829C389.927 265.477 389.744 265.198 389.502 264.993C389.267 264.788 388.988 264.685 388.666 264.685Z" fill="#D6D6D6"/>
    <path d="M450.826 268.315V272H450.034V264.212H454.731V264.916H450.826V267.622H454.456V268.315H450.826ZM456.058 269.03H459.567C459.545 268.531 459.384 268.128 459.083 267.82C458.79 267.505 458.383 267.347 457.862 267.347C457.378 267.347 456.964 267.516 456.619 267.853C456.282 268.183 456.095 268.575 456.058 269.03ZM460.326 269.272C460.326 269.419 460.323 269.536 460.315 269.624H456.047C456.062 270.145 456.249 270.588 456.608 270.955C456.968 271.314 457.408 271.494 457.928 271.494C458.288 271.494 458.614 271.41 458.907 271.241C459.201 271.065 459.424 270.852 459.578 270.603L460.139 271.043C459.567 271.769 458.83 272.132 457.928 272.132C457.166 272.132 456.531 271.875 456.025 271.362C455.519 270.849 455.266 270.203 455.266 269.426C455.266 268.656 455.516 268.014 456.014 267.501C456.513 266.98 457.129 266.72 457.862 266.72C458.64 266.72 459.245 266.962 459.677 267.446C460.11 267.923 460.326 268.531 460.326 269.272ZM462.727 271.131H462.705V272H461.957V263.684H462.705V267.743H462.727C462.94 267.42 463.222 267.171 463.574 266.995C463.926 266.812 464.293 266.72 464.674 266.72C465.466 266.72 466.108 266.98 466.599 267.501C467.091 268.014 467.336 268.656 467.336 269.426C467.336 270.196 467.091 270.841 466.599 271.362C466.108 271.875 465.466 272.132 464.674 272.132C464.293 272.132 463.926 272.044 463.574 271.868C463.222 271.692 462.94 271.446 462.727 271.131ZM466.016 270.911C466.368 270.515 466.544 270.02 466.544 269.426C466.544 268.832 466.368 268.337 466.016 267.941C465.672 267.545 465.199 267.347 464.597 267.347C464.025 267.347 463.552 267.545 463.178 267.941C462.804 268.337 462.617 268.832 462.617 269.426C462.617 270.02 462.804 270.515 463.178 270.911C463.552 271.3 464.025 271.494 464.597 271.494C465.199 271.494 465.672 271.3 466.016 270.911ZM469.668 271.054C469.786 271.171 469.844 271.311 469.844 271.472C469.844 271.633 469.786 271.773 469.668 271.89C469.558 272.007 469.419 272.066 469.25 272.066C469.082 272.066 468.939 272.007 468.821 271.89C468.711 271.773 468.656 271.633 468.656 271.472C468.656 271.311 468.711 271.171 468.821 271.054C468.939 270.937 469.082 270.878 469.25 270.878C469.419 270.878 469.558 270.937 469.668 271.054ZM477.033 264.212V272H476.241V265.191L474.833 266.39L474.349 265.84L476.329 264.212H477.033ZM484.954 264.212V264.938L481.819 272H480.928L484.151 264.916H480.334V264.212H484.954Z" fill="#D6D6D6"/>
    <rect x="67" y="41" width="1" height="218" fill="#5C5C5C"/>
    <rect x="61" y="200" width="6" height="1" fill="#5C5C5C"/>
    <rect x="162" y="260" width="6" height="1" transform="rotate(-90 162 260)" fill="#5C5C5C"/>
    <rect x="256" y="260" width="6" height="1" transform="rotate(-90 256 260)" fill="#5C5C5C"/>
    <rect x="350" y="260" width="6" height="1" transform="rotate(-90 350 260)" fill="#5C5C5C"/>
    <rect x="444" y="260" width="6" height="1" transform="rotate(-90 444 260)" fill="#5C5C5C"/>
    <rect x="61" y="253" width="455" height="1" fill="#5C5C5C"/>
    <rect x="61" y="147" width="6" height="1" fill="#5C5C5C"/>
    <rect x="61" y="94" width="6" height="1" fill="#5C5C5C"/>
    <rect x="61" y="41" width="6" height="1" fill="#5C5C5C"/>
    <line opacity="0.15" x1="68" y1="200.5" x2="516" y2="200.5" stroke="#BDBDBD" stroke-dasharray="3 3"/>
    <line opacity="0.15" x1="162.5" y1="41" x2="162.5" y2="253" stroke="#BDBDBD" stroke-dasharray="3 3"/>
    <line opacity="0.15" x1="256.5" y1="41" x2="256.5" y2="253" stroke="#BDBDBD" stroke-dasharray="3 3"/>
    <line opacity="0.15" x1="256.5" y1="41" x2="256.5" y2="253" stroke="#BDBDBD" stroke-dasharray="3 3"/>
    <line opacity="0.15" x1="350.5" y1="41" x2="350.5" y2="253" stroke="#BDBDBD" stroke-dasharray="3 3"/>
    <line opacity="0.15" x1="444.5" y1="41" x2="444.5" y2="253" stroke="#BDBDBD" stroke-dasharray="3 3"/>
    <line opacity="0.15" x1="68" y1="147.5" x2="516" y2="147.5" stroke="#BDBDBD" stroke-dasharray="3 3"/>
    <line opacity="0.15" x1="68" y1="94.5" x2="516" y2="94.5" stroke="#BDBDBD" stroke-dasharray="3 3"/>
    <line opacity="0.15" x1="68" y1="41.5" x2="516" y2="41.5" stroke="#BDBDBD" stroke-dasharray="3 3"/>
    <circle cx="192" cy="321" r="8" fill="#E60000"/>
    <circle cx="306" cy="321" r="8" fill="#70A800"/>
    <rect x="69" y="250" width="4" height="3" fill="#E60000"/>
    <rect x="82" y="252" width="4" height="1" fill="#E60000"/>
    <rect x="96" y="251" width="4" height="2" fill="#E60000"/>
    <rect x="109" y="252" width="4" height="1" fill="#E60000"/>
    <rect x="123" y="250" width="4" height="3" fill="#E60000"/>
    <rect x="136" y="242" width="4" height="11" fill="#E60000"/>
    <rect x="150" y="245" width="4" height="8" fill="#E60000"/>
    <rect x="163" y="235" width="4" height="18" fill="#E60000"/>
    <rect x="177" y="236" width="4" height="17" fill="#E60000"/>
    <rect x="190" y="235" width="4" height="18" fill="#E60000"/>
    <rect x="204" y="232" width="4" height="21" fill="#E60000"/>
    <rect x="217" y="236" width="4" height="17" fill="#E60000"/>
    <rect x="231" y="220" width="4" height="33" fill="#E60000"/>
    <rect x="244" y="223" width="4" height="30" fill="#E60000"/>
    <rect x="258" y="226" width="4" height="27" fill="#E60000"/>
    <rect x="271" y="210" width="4" height="43" fill="#E60000"/>
    <rect x="285" y="213" width="4" height="40" fill="#E60000"/>
    <rect x="299" y="219" width="4" height="34" fill="#E60000"/>
    <rect x="312" y="215" width="4" height="38" fill="#E60000"/>
    <rect x="326" y="224" width="4" height="29" fill="#E60000"/>
    <rect x="339" y="221" width="4" height="32" fill="#E60000"/>
    <rect x="353" y="225" width="4" height="28" fill="#E60000"/>
    <rect x="366" y="231" width="4" height="22" fill="#E60000"/>
    <rect x="380" y="249" width="4" height="4" fill="#E60000"/>
    <rect x="393" y="92" width="4" height="161" fill="#E60000"/>
    <rect x="407" y="184" width="4" height="69" fill="#E60000"/>
    <rect x="420" y="230" width="4" height="23" fill="#E60000"/>
    <rect x="434" y="230" width="4" height="23" fill="#E60000"/>
    <rect x="447" y="231" width="4" height="22" fill="#E60000"/>
    <rect x="461" y="233" width="4" height="20" fill="#E60000"/>
    <rect x="474" y="248" width="4" height="5" fill="#E60000"/>
    <rect x="488" y="247" width="4" height="6" fill="#E60000"/>
    <rect x="501" y="247" width="4" height="6" fill="#E60000"/>
    <rect x="224" y="252" width="4" height="1" fill="#70A800"/>
    <rect x="238" y="252" width="4" height="1" fill="#70A800"/>
    <rect x="251" y="251" width="4" height="2" fill="#70A800"/>
    <rect x="265" y="252" width="4" height="1" fill="#70A800"/>
    <rect x="278" y="250" width="4" height="3" fill="#70A800"/>
    <rect x="292" y="250" width="4" height="3" fill="#70A800"/>
    <rect x="306" y="249" width="4" height="4" fill="#70A800"/>
    <rect x="319" y="247" width="4" height="6" fill="#70A800"/>
    <rect x="333" y="247" width="4" height="6" fill="#70A800"/>
    <rect x="346" y="246" width="4" height="7" fill="#70A800"/>
    <rect x="360" y="246" width="4" height="7" fill="#70A800"/>
    <rect x="373" y="245" width="4" height="8" fill="#70A800"/>
    <rect x="387" y="248" width="4" height="5" fill="#70A800"/>
    <rect x="400" y="241" width="4" height="12" fill="#70A800"/>
    <rect x="414" y="234" width="4" height="19" fill="#70A800"/>
    <rect x="427" y="239" width="4" height="14" fill="#70A800"/>
    <rect x="441" y="237" width="4" height="16" fill="#70A800"/>
    <rect x="454" y="235" width="4" height="18" fill="#70A800"/>
    <rect x="468" y="234" width="4" height="19" fill="#70A800"/>
    <rect x="481" y="234" width="4" height="19" fill="#70A800"/>
    <rect x="495" y="231" width="4" height="22" fill="#70A800"/>
    <rect x="508" y="246" width="4" height="7" fill="#70A800"/>
    <rect x="0.5" y="0.5" width="549" height="352" stroke="#D6D6D6" stroke-opacity="0.2"/>
    <rect width="60" height="27" transform="translate(20 353)" fill="black"/>
    <path d="M34.3834 368.768L33.4594 371H32.5114L36.1834 362.504H37.0234L40.6714 371H39.7114L38.7754 368.768H34.3834ZM36.5794 363.464L34.7074 367.976H38.4514L36.5794 363.464ZM46.6738 366.212L46.0378 366.668C45.9018 366.452 45.7018 366.276 45.4378 366.14C45.1818 365.996 44.9018 365.924 44.5978 365.924C43.9578 365.924 43.4378 366.14 43.0378 366.572C42.6458 366.996 42.4498 367.536 42.4498 368.192C42.4498 368.84 42.6458 369.38 43.0378 369.812C43.4298 370.236 43.9458 370.448 44.5858 370.448C45.2338 370.448 45.7418 370.204 46.1098 369.716L46.7218 370.172C46.1938 370.82 45.4818 371.144 44.5858 371.144C43.6898 371.144 42.9658 370.868 42.4138 370.316C41.8618 369.756 41.5858 369.048 41.5858 368.192C41.5858 367.336 41.8618 366.632 42.4138 366.08C42.9658 365.52 43.6898 365.24 44.5858 365.24C44.9858 365.24 45.3738 365.324 45.7498 365.492C46.1338 365.66 46.4418 365.9 46.6738 366.212ZM50.6458 365.384V366.068H49.0618V369.344C49.0618 369.736 49.1338 370.008 49.2778 370.16C49.4218 370.304 49.6298 370.376 49.9018 370.376C50.1338 370.376 50.3698 370.316 50.6098 370.196L50.6458 370.904C50.3498 371.016 50.0298 371.072 49.6858 371.072C49.3018 371.072 48.9658 370.96 48.6778 370.736C48.3898 370.512 48.2458 370.124 48.2458 369.572V366.068H47.0818V365.384H48.2458V363.8H49.0618V365.384H50.6458ZM56.9023 371H56.1223C56.0903 370.6 56.0743 370.28 56.0743 370.04H56.0503C55.8983 370.36 55.6383 370.624 55.2703 370.832C54.9103 371.04 54.5303 371.144 54.1303 371.144C53.4343 371.144 52.9023 370.936 52.5343 370.52C52.1743 370.104 51.9943 369.54 51.9943 368.828V365.384H52.8103V368.492C52.8103 369.124 52.9223 369.612 53.1463 369.956C53.3783 370.292 53.7743 370.46 54.3343 370.46C54.8063 370.46 55.2063 370.272 55.5343 369.896C55.8703 369.512 56.0383 368.968 56.0383 368.264V365.384H56.8543V369.764C56.8543 370.244 56.8703 370.656 56.9023 371ZM62.675 367.556V367.376C62.675 366.408 62.175 365.924 61.175 365.924C60.503 365.924 59.947 366.144 59.507 366.584L59.051 366.044C59.587 365.508 60.323 365.24 61.259 365.24C61.899 365.24 62.423 365.416 62.831 365.768C63.239 366.12 63.443 366.624 63.443 367.28V369.74C63.443 370.244 63.475 370.664 63.539 371H62.807C62.751 370.68 62.723 370.376 62.723 370.088H62.699C62.211 370.792 61.531 371.144 60.659 371.144C60.155 371.144 59.703 371.004 59.303 370.724C58.911 370.436 58.715 370.008 58.715 369.44C58.715 369.16 58.763 368.916 58.859 368.708C58.955 368.492 59.099 368.316 59.291 368.18C59.483 368.044 59.691 367.936 59.915 367.856C60.139 367.768 60.415 367.704 60.743 367.664C61.071 367.616 61.375 367.588 61.655 367.58C61.943 367.564 62.283 367.556 62.675 367.556ZM62.675 368.192H62.435C62.051 368.192 61.707 368.208 61.403 368.24C61.107 368.264 60.807 368.316 60.503 368.396C60.207 368.476 59.975 368.6 59.807 368.768C59.639 368.936 59.555 369.148 59.555 369.404C59.555 369.772 59.683 370.044 59.939 370.22C60.195 370.388 60.507 370.472 60.875 370.472C61.427 370.472 61.863 370.292 62.183 369.932C62.511 369.572 62.675 369.132 62.675 368.612V368.192ZM66.5052 361.928V371H65.6892V361.928H66.5052Z" fill="#D6D6D6"/>
    <rect x="80" y="353" width="26" height="0.999999" transform="rotate(90 80 353)" fill="#464646"/>
    <rect x="21" y="353" width="26" height="0.999999" transform="rotate(90 21 353)" fill="#464646"/>
    <rect x="20" y="378" width="60" height="2" fill="#464646"/>
    <rect width="90" height="27" transform="translate(90 353)" fill="black"/>
    <rect x="90" y="378" width="90" height="2" fill="#464646"/>
    <path d="M104.413 361.504V369.232H108.373V370H103.549V361.504H104.413ZM114.256 365.08C114.824 365.64 115.108 366.344 115.108 367.192C115.108 368.04 114.824 368.744 114.256 369.304C113.696 369.864 112.98 370.144 112.108 370.144C111.244 370.144 110.528 369.864 109.96 369.304C109.4 368.744 109.12 368.04 109.12 367.192C109.12 366.344 109.4 365.64 109.96 365.08C110.528 364.52 111.244 364.24 112.108 364.24C112.98 364.24 113.696 364.52 114.256 365.08ZM113.656 368.812C114.048 368.38 114.244 367.84 114.244 367.192C114.244 366.544 114.048 366.004 113.656 365.572C113.264 365.14 112.748 364.924 112.108 364.924C111.476 364.924 110.964 365.14 110.572 365.572C110.18 366.004 109.984 366.544 109.984 367.192C109.984 367.832 110.18 368.368 110.572 368.8C110.964 369.232 111.476 369.448 112.108 369.448C112.748 369.448 113.264 369.236 113.656 368.812ZM116.696 371.752L117.284 371.128C117.516 371.424 117.828 371.668 118.22 371.86C118.612 372.06 119.016 372.16 119.432 372.16C120.192 372.16 120.748 371.956 121.1 371.548C121.452 371.14 121.628 370.608 121.628 369.952V368.896H121.604C121.396 369.232 121.092 369.5 120.692 369.7C120.3 369.9 119.896 370 119.48 370C118.616 370 117.916 369.732 117.38 369.196C116.844 368.66 116.576 367.976 116.576 367.144C116.576 366.328 116.844 365.64 117.38 365.08C117.924 364.52 118.624 364.24 119.48 364.24C119.904 364.24 120.308 364.34 120.692 364.54C121.084 364.732 121.388 365.004 121.604 365.356H121.628V364.384H122.444V369.952C122.444 370.296 122.396 370.624 122.3 370.936C122.212 371.248 122.064 371.556 121.856 371.86C121.648 372.172 121.332 372.42 120.908 372.604C120.492 372.788 119.988 372.88 119.396 372.88C118.884 372.88 118.388 372.78 117.908 372.58C117.436 372.38 117.032 372.104 116.696 371.752ZM118.004 365.56C117.628 365.984 117.44 366.504 117.44 367.12C117.44 367.736 117.628 368.256 118.004 368.68C118.388 369.096 118.908 369.304 119.564 369.304C120.196 369.304 120.712 369.104 121.112 368.704C121.52 368.296 121.724 367.768 121.724 367.12C121.724 366.52 121.516 366.004 121.1 365.572C120.692 365.14 120.18 364.924 119.564 364.924C118.908 364.924 118.388 365.136 118.004 365.56ZM128.226 366.556V366.376C128.226 365.408 127.726 364.924 126.726 364.924C126.054 364.924 125.498 365.144 125.058 365.584L124.602 365.044C125.138 364.508 125.874 364.24 126.81 364.24C127.45 364.24 127.974 364.416 128.382 364.768C128.79 365.12 128.994 365.624 128.994 366.28V368.74C128.994 369.244 129.026 369.664 129.09 370H128.358C128.302 369.68 128.274 369.376 128.274 369.088H128.25C127.762 369.792 127.082 370.144 126.21 370.144C125.706 370.144 125.254 370.004 124.854 369.724C124.462 369.436 124.266 369.008 124.266 368.44C124.266 368.16 124.314 367.916 124.41 367.708C124.506 367.492 124.65 367.316 124.842 367.18C125.034 367.044 125.242 366.936 125.466 366.856C125.69 366.768 125.966 366.704 126.294 366.664C126.622 366.616 126.926 366.588 127.206 366.58C127.494 366.564 127.834 366.556 128.226 366.556ZM128.226 367.192H127.986C127.602 367.192 127.258 367.208 126.954 367.24C126.658 367.264 126.358 367.316 126.054 367.396C125.758 367.476 125.526 367.6 125.358 367.768C125.19 367.936 125.106 368.148 125.106 368.404C125.106 368.772 125.234 369.044 125.49 369.22C125.746 369.388 126.058 369.472 126.426 369.472C126.978 369.472 127.414 369.292 127.734 368.932C128.062 368.572 128.226 368.132 128.226 367.612V367.192ZM131.216 365.62C131.216 365.14 131.2 364.728 131.168 364.384H131.948C131.98 364.784 131.996 365.104 131.996 365.344H132.02C132.18 365.016 132.42 364.752 132.74 364.552C133.068 364.344 133.428 364.24 133.82 364.24C134.036 364.24 134.216 364.26 134.36 364.3L134.252 365.068C134.124 365.02 133.932 364.996 133.676 364.996C133.204 364.996 132.812 365.176 132.5 365.536C132.188 365.888 132.032 366.416 132.032 367.12V370H131.216V365.62ZM136.488 364.384V370H135.672V364.384H136.488ZM136.476 361.816C136.596 361.928 136.656 362.064 136.656 362.224C136.656 362.384 136.596 362.52 136.476 362.632C136.364 362.744 136.232 362.8 136.08 362.8C135.928 362.8 135.792 362.744 135.672 362.632C135.56 362.52 135.504 362.384 135.504 362.224C135.504 362.064 135.56 361.928 135.672 361.816C135.792 361.704 135.928 361.648 136.08 361.648C136.232 361.648 136.364 361.704 136.476 361.816ZM141.312 364.384V365.068H139.728V368.344C139.728 368.736 139.8 369.008 139.944 369.16C140.088 369.304 140.296 369.376 140.568 369.376C140.8 369.376 141.036 369.316 141.276 369.196L141.312 369.904C141.016 370.016 140.696 370.072 140.352 370.072C139.968 370.072 139.632 369.96 139.344 369.736C139.056 369.512 138.912 369.124 138.912 368.572V365.068H137.748V364.384H138.912V362.8H139.728V364.384H141.312ZM143.549 365.308H143.573C143.717 364.988 143.965 364.732 144.317 364.54C144.677 364.34 145.057 364.24 145.457 364.24C146.153 364.24 146.681 364.448 147.041 364.864C147.409 365.28 147.593 365.844 147.593 366.556V370H146.777V366.892C146.777 366.26 146.661 365.776 146.429 365.44C146.205 365.096 145.813 364.924 145.253 364.924C144.781 364.924 144.377 365.116 144.041 365.5C143.713 365.876 143.549 366.416 143.549 367.12V370H142.733V360.928H143.549V365.308ZM150.629 365.344C150.797 365.016 151.045 364.752 151.373 364.552C151.709 364.344 152.077 364.24 152.477 364.24C153.325 364.24 153.901 364.636 154.205 365.428C154.597 364.636 155.253 364.24 156.173 364.24C156.869 364.24 157.397 364.448 157.757 364.864C158.125 365.28 158.309 365.844 158.309 366.556V370H157.493V366.892C157.493 365.58 157.009 364.924 156.041 364.924C155.497 364.924 155.093 365.128 154.829 365.536C154.573 365.936 154.445 366.428 154.445 367.012V370H153.629V366.724C153.629 366.132 153.529 365.684 153.329 365.38C153.137 365.076 152.785 364.924 152.273 364.924C151.841 364.924 151.461 365.116 151.133 365.5C150.805 365.876 150.641 366.416 150.641 367.12V370H149.825V365.62C149.825 365.14 149.809 364.728 149.777 364.384H150.557C150.589 364.784 150.605 365.104 150.605 365.344H150.629ZM161.367 364.384V370H160.551V364.384H161.367ZM161.355 361.816C161.475 361.928 161.535 362.064 161.535 362.224C161.535 362.384 161.475 362.52 161.355 362.632C161.243 362.744 161.111 362.8 160.959 362.8C160.807 362.8 160.671 362.744 160.551 362.632C160.439 362.52 160.383 362.384 160.383 362.224C160.383 362.064 160.439 361.928 160.551 361.816C160.671 361.704 160.807 361.648 160.959 361.648C161.111 361.648 161.243 361.704 161.355 361.816ZM168.339 365.212L167.703 365.668C167.567 365.452 167.367 365.276 167.103 365.14C166.847 364.996 166.567 364.924 166.263 364.924C165.623 364.924 165.103 365.14 164.703 365.572C164.311 365.996 164.115 366.536 164.115 367.192C164.115 367.84 164.311 368.38 164.703 368.812C165.095 369.236 165.611 369.448 166.251 369.448C166.899 369.448 167.407 369.204 167.775 368.716L168.387 369.172C167.859 369.82 167.147 370.144 166.251 370.144C165.355 370.144 164.631 369.868 164.079 369.316C163.527 368.756 163.251 368.048 163.251 367.192C163.251 366.336 163.527 365.632 164.079 365.08C164.631 364.52 165.355 364.24 166.251 364.24C166.651 364.24 167.039 364.324 167.415 364.492C167.799 364.66 168.107 364.9 168.339 365.212Z" fill="#D6D6D6"/>
    <rect x="180" y="353" width="26" height="0.999999" transform="rotate(90 180 353)" fill="#464646"/>
    <rect x="91" y="353" width="26" height="0.999999" transform="rotate(90 91 353)" fill="#464646"/>
    <rect width="102" height="27" transform="translate(190 352)" fill="#222222"/>
    <path d="M203.356 368V359.504H206.176C206.72 359.504 207.252 359.596 207.772 359.78C208.292 359.956 208.768 360.216 209.2 360.56C209.632 360.896 209.98 361.344 210.244 361.904C210.508 362.456 210.64 363.072 210.64 363.752C210.64 364.432 210.508 365.052 210.244 365.612C209.98 366.164 209.632 366.612 209.2 366.956C208.768 367.292 208.292 367.552 207.772 367.736C207.252 367.912 206.72 368 206.176 368H203.356ZM204.22 360.272V367.232H205.936C206.552 367.232 207.104 367.136 207.592 366.944C208.088 366.744 208.488 366.48 208.792 366.152C209.096 365.816 209.328 365.444 209.488 365.036C209.648 364.628 209.728 364.2 209.728 363.752C209.728 363.304 209.648 362.876 209.488 362.468C209.328 362.06 209.096 361.692 208.792 361.364C208.488 361.028 208.088 360.764 207.592 360.572C207.104 360.372 206.552 360.272 205.936 360.272H204.22ZM216.05 364.556V364.376C216.05 363.408 215.55 362.924 214.55 362.924C213.878 362.924 213.322 363.144 212.882 363.584L212.426 363.044C212.962 362.508 213.698 362.24 214.634 362.24C215.274 362.24 215.798 362.416 216.206 362.768C216.614 363.12 216.818 363.624 216.818 364.28V366.74C216.818 367.244 216.85 367.664 216.914 368H216.182C216.126 367.68 216.098 367.376 216.098 367.088H216.074C215.586 367.792 214.906 368.144 214.034 368.144C213.53 368.144 213.078 368.004 212.678 367.724C212.286 367.436 212.09 367.008 212.09 366.44C212.09 366.16 212.138 365.916 212.234 365.708C212.33 365.492 212.474 365.316 212.666 365.18C212.858 365.044 213.066 364.936 213.29 364.856C213.514 364.768 213.79 364.704 214.118 364.664C214.446 364.616 214.75 364.588 215.03 364.58C215.318 364.564 215.658 364.556 216.05 364.556ZM216.05 365.192H215.81C215.426 365.192 215.082 365.208 214.778 365.24C214.482 365.264 214.182 365.316 213.878 365.396C213.582 365.476 213.35 365.6 213.182 365.768C213.014 365.936 212.93 366.148 212.93 366.404C212.93 366.772 213.058 367.044 213.314 367.22C213.57 367.388 213.882 367.472 214.25 367.472C214.802 367.472 215.238 367.292 215.558 366.932C215.886 366.572 216.05 366.132 216.05 365.612V365.192ZM219.868 362.384V368H219.052V362.384H219.868ZM219.856 359.816C219.976 359.928 220.036 360.064 220.036 360.224C220.036 360.384 219.976 360.52 219.856 360.632C219.744 360.744 219.612 360.8 219.46 360.8C219.308 360.8 219.172 360.744 219.052 360.632C218.94 360.52 218.884 360.384 218.884 360.224C218.884 360.064 218.94 359.928 219.052 359.816C219.172 359.704 219.308 359.648 219.46 359.648C219.612 359.648 219.744 359.704 219.856 359.816ZM223 358.928V368H222.184V358.928H223ZM225.327 362.384L227.235 367.124H227.259L228.999 362.384H229.887L227.091 369.452C226.907 369.924 226.679 370.28 226.407 370.52C226.143 370.76 225.783 370.88 225.327 370.88C225.079 370.88 224.835 370.856 224.595 370.808L224.679 370.064C224.871 370.128 225.071 370.16 225.279 370.16C225.543 370.16 225.755 370.076 225.915 369.908C226.083 369.748 226.231 369.5 226.359 369.164L226.815 367.988L224.415 362.384H225.327ZM235.315 359.504V368H234.451V359.504H235.315ZM237.592 362.384H238.372C238.404 362.784 238.42 363.104 238.42 363.344H238.444C238.596 363.024 238.852 362.76 239.212 362.552C239.58 362.344 239.964 362.24 240.364 362.24C241.06 362.24 241.588 362.448 241.948 362.864C242.316 363.28 242.5 363.844 242.5 364.556V368H241.684V364.892C241.684 364.26 241.568 363.776 241.336 363.44C241.112 363.096 240.72 362.924 240.16 362.924C239.688 362.924 239.284 363.116 238.948 363.5C238.62 363.876 238.456 364.416 238.456 365.12V368H237.64V363.62C237.64 363.14 237.624 362.728 237.592 362.384ZM249.413 363.212L248.777 363.668C248.641 363.452 248.441 363.276 248.177 363.14C247.921 362.996 247.641 362.924 247.337 362.924C246.697 362.924 246.177 363.14 245.777 363.572C245.385 363.996 245.189 364.536 245.189 365.192C245.189 365.84 245.385 366.38 245.777 366.812C246.169 367.236 246.685 367.448 247.325 367.448C247.973 367.448 248.481 367.204 248.849 366.716L249.461 367.172C248.933 367.82 248.221 368.144 247.325 368.144C246.429 368.144 245.705 367.868 245.153 367.316C244.601 366.756 244.325 366.048 244.325 365.192C244.325 364.336 244.601 363.632 245.153 363.08C245.705 362.52 246.429 362.24 247.325 362.24C247.725 362.24 248.113 362.324 248.489 362.492C248.873 362.66 249.181 362.9 249.413 363.212ZM250.853 363.62C250.853 363.14 250.837 362.728 250.805 362.384H251.585C251.617 362.784 251.633 363.104 251.633 363.344H251.657C251.817 363.016 252.057 362.752 252.377 362.552C252.705 362.344 253.065 362.24 253.457 362.24C253.673 362.24 253.853 362.26 253.997 362.3L253.889 363.068C253.761 363.02 253.569 362.996 253.313 362.996C252.841 362.996 252.449 363.176 252.137 363.536C251.825 363.888 251.669 364.416 251.669 365.12V368H250.853V363.62ZM255.542 364.76H259.37C259.346 364.216 259.17 363.776 258.842 363.44C258.522 363.096 258.078 362.924 257.51 362.924C256.982 362.924 256.53 363.108 256.154 363.476C255.786 363.836 255.582 364.264 255.542 364.76ZM260.198 365.024C260.198 365.184 260.194 365.312 260.186 365.408H255.53C255.546 365.976 255.75 366.46 256.142 366.86C256.534 367.252 257.014 367.448 257.582 367.448C257.974 367.448 258.33 367.356 258.65 367.172C258.97 366.98 259.214 366.748 259.382 366.476L259.994 366.956C259.37 367.748 258.566 368.144 257.582 368.144C256.75 368.144 256.058 367.864 255.506 367.304C254.954 366.744 254.678 366.04 254.678 365.192C254.678 364.352 254.95 363.652 255.494 363.092C256.038 362.524 256.71 362.24 257.51 362.24C258.358 362.24 259.018 362.504 259.49 363.032C259.962 363.552 260.198 364.216 260.198 365.024ZM265.543 364.556V364.376C265.543 363.408 265.043 362.924 264.043 362.924C263.371 362.924 262.815 363.144 262.375 363.584L261.919 363.044C262.455 362.508 263.191 362.24 264.127 362.24C264.767 362.24 265.291 362.416 265.699 362.768C266.107 363.12 266.311 363.624 266.311 364.28V366.74C266.311 367.244 266.343 367.664 266.407 368H265.675C265.619 367.68 265.591 367.376 265.591 367.088H265.567C265.079 367.792 264.399 368.144 263.527 368.144C263.023 368.144 262.571 368.004 262.171 367.724C261.779 367.436 261.583 367.008 261.583 366.44C261.583 366.16 261.631 365.916 261.727 365.708C261.823 365.492 261.967 365.316 262.159 365.18C262.351 365.044 262.559 364.936 262.783 364.856C263.007 364.768 263.283 364.704 263.611 364.664C263.939 364.616 264.243 364.588 264.523 364.58C264.811 364.564 265.151 364.556 265.543 364.556ZM265.543 365.192H265.303C264.919 365.192 264.575 365.208 264.271 365.24C263.975 365.264 263.675 365.316 263.371 365.396C263.075 365.476 262.843 365.6 262.675 365.768C262.507 365.936 262.423 366.148 262.423 366.404C262.423 366.772 262.551 367.044 262.807 367.22C263.063 367.388 263.375 367.472 263.743 367.472C264.295 367.472 264.731 367.292 265.051 366.932C265.379 366.572 265.543 366.132 265.543 365.612V365.192ZM272.145 363.248L271.521 363.716C271.401 363.476 271.217 363.284 270.969 363.14C270.721 362.996 270.445 362.924 270.141 362.924C269.813 362.924 269.533 363 269.301 363.152C269.069 363.296 268.953 363.512 268.953 363.8C268.953 364.056 269.057 364.256 269.265 364.4C269.473 364.544 269.817 364.664 270.297 364.76C270.961 364.896 271.449 365.096 271.761 365.36C272.081 365.624 272.241 365.972 272.241 366.404C272.241 366.996 272.033 367.436 271.617 367.724C271.209 368.004 270.713 368.144 270.129 368.144C269.145 368.144 268.405 367.78 267.909 367.052L268.557 366.572C268.709 366.828 268.925 367.04 269.205 367.208C269.493 367.368 269.797 367.448 270.117 367.448C270.501 367.448 270.817 367.372 271.065 367.22C271.313 367.06 271.437 366.808 271.437 366.464C271.437 366.184 271.305 365.968 271.041 365.816C270.785 365.664 270.365 365.52 269.781 365.384C269.573 365.336 269.393 365.284 269.241 365.228C269.089 365.172 268.921 365.088 268.737 364.976C268.561 364.864 268.421 364.716 268.317 364.532C268.221 364.34 268.173 364.12 268.173 363.872C268.173 363.336 268.365 362.932 268.749 362.66C269.141 362.38 269.617 362.24 270.177 362.24C270.577 362.24 270.961 362.332 271.329 362.516C271.697 362.692 271.969 362.936 272.145 363.248ZM274.441 364.76H278.269C278.245 364.216 278.069 363.776 277.741 363.44C277.421 363.096 276.977 362.924 276.409 362.924C275.881 362.924 275.429 363.108 275.053 363.476C274.685 363.836 274.481 364.264 274.441 364.76ZM279.097 365.024C279.097 365.184 279.093 365.312 279.085 365.408H274.429C274.445 365.976 274.649 366.46 275.041 366.86C275.433 367.252 275.913 367.448 276.481 367.448C276.873 367.448 277.229 367.356 277.549 367.172C277.869 366.98 278.113 366.748 278.281 366.476L278.893 366.956C278.269 367.748 277.465 368.144 276.481 368.144C275.649 368.144 274.957 367.864 274.405 367.304C273.853 366.744 273.577 366.04 273.577 365.192C273.577 364.352 273.849 363.652 274.393 363.092C274.937 362.524 275.609 362.24 276.409 362.24C277.257 362.24 277.917 362.504 278.389 363.032C278.861 363.552 279.097 364.216 279.097 365.024Z" fill="#D6D6D6"/>
    <rect x="292" y="352" width="26" height="0.999999" transform="rotate(90 292 352)" fill="#464646"/>
    <rect x="191" y="352" width="26" height="0.999999" transform="rotate(90 191 352)" fill="#464646"/>
    <rect x="190" y="377" width="102" height="2" fill="#2493F2"/>
    </svg>
    